<svg width="456" height="350" viewBox="0 0 456 350" fill="none" xmlns="http://www.w3.org/2000/svg">
<path d="M273.977 228.144C277.335 227.652 279.771 224.529 279.336 220.975C278.901 217.421 275.717 215.181 272.167 215.616C268.809 216.107 266.373 219.231 266.804 222.785C267.239 226.339 270.419 228.579 273.977 228.144ZM357.327 189.62H283.121C288.654 164.377 304.575 144.772 320.4 144.772C338.644 144.772 352.081 167.457 357.327 189.62ZM264.163 189.62H240.569L234.61 312.83C233.657 333.088 249.387 349.535 269.644 349.535H364.975C385.228 349.535 400.958 333.092 400.005 312.83L394.05 189.62H367.359C360.925 158.161 343.046 135.045 320.17 135.045C297.289 135.045 279.415 156.73 272.502 186.997L274.064 205.689L291.338 216.647L299.947 275.106L262.345 280.54L253.937 222.141L266.66 207.542L264.163 189.62Z" fill="#5782BB"/>
<mask id="mask0_707_13" style="mask-type:luminance" maskUnits="userSpaceOnUse" x="0" y="0" width="456" height="323">
<path d="M220.442 317.358L227.081 176.731L265.334 176.766C265.334 176.766 272.068 122.856 321.567 122.856C371.07 122.856 374.424 178.167 374.424 178.167L405.183 180.672L408.149 272.531H455.034L450.227 103.525L368.595 23.5938L279.063 0.399597L170.857 4.89315L106.046 11.727C106.046 11.727 37.377 57.9327 31.3784 62.9309C25.3841 67.9203 2.49002 123.291 0.941417 127.52C-0.598483 131.748 5.93957 215.307 5.93957 215.307L31.4175 275.802L81.1076 305.974L148.489 322.6L220.442 317.358Z" fill="white"/>
</mask>
<g mask="url(#mask0_707_13)">
<path fill-rule="evenodd" clip-rule="evenodd" d="M428.342 122.326C427.572 122.326 425.923 122.326 425.923 122.326L386.386 122.313L385.838 104.717C385.838 96.0866 378.843 89.0918 370.213 89.0918H334.443V122.3L334.439 268.068H425.554L436.424 135.158C436.424 135.158 436.607 134.354 436.703 133.096C437.186 127.259 434.21 122.326 428.342 122.326ZM341.603 139.904H383.789L381.445 172.19H341.603V139.904ZM341.603 179.493H381.266L378.791 215.163H341.603V179.493ZM341.285 226.169H354.462L341.285 239.336V226.169ZM417.745 260.06H350.451L367.894 242.616C369.504 241.007 369.504 238.397 367.894 236.792C366.289 235.182 363.679 235.182 362.07 236.792L341.285 257.572V250.416C341.834 250.216 342.351 249.924 342.795 249.481L365.228 227.052C365.493 226.787 365.641 226.469 365.819 226.165H420.347L417.745 260.06ZM420.886 214.702H385.634L388.205 178.95H423.988L420.886 214.702ZM424.901 171.389H388.922L390.949 139.669H427.833L424.901 171.389ZM145.57 89.0831H109.652C101.026 89.0831 94.0271 96.0779 94.0271 104.708L93.4833 122.304L54.1071 122.317C54.1071 122.317 52.4628 122.317 51.6929 122.317C45.8247 122.317 42.8493 127.254 43.3235 133.083C43.4279 134.34 43.6062 135.145 43.6062 135.145L54.4769 268.055H145.592V122.287H145.57V89.0831ZM137.906 139.904V172.19H109.935L126.83 155.294C128.44 153.685 128.44 151.079 126.83 149.47C125.221 147.856 122.611 147.856 121.006 149.47L98.5728 171.898C98.4858 171.985 98.4554 172.098 98.3814 172.185H98.0639L97.755 167.909L111.205 154.255C112.815 152.641 112.815 150.035 111.205 148.426C109.596 146.816 106.986 146.816 105.381 148.426L96.9633 156.969L95.7236 139.904H137.906ZM137.906 179.493V215.163H100.722L98.2466 179.493H137.906ZM51.6798 139.669H88.5635L90.5906 171.389H54.6117L51.6798 139.669ZM55.5296 178.954H91.3127L93.8835 214.707H58.6224L55.5296 178.954ZM138.227 260.06H122.08L138.227 243.913V260.06ZM138.227 233.277C137.479 233.438 136.757 233.729 136.174 234.312L113.741 256.745C112.832 257.654 112.493 258.872 112.615 260.06H61.7675L59.1662 226.169H126.087L111.075 241.176C109.465 242.79 109.465 245.4 111.075 247.01C112.684 248.615 115.29 248.615 116.899 247.01L137.74 226.169H138.227V233.277ZM153.957 297.461H327.722L327.753 228.374H154.022L153.957 297.461ZM284.605 238.097H317.891V288.935H284.605V238.097ZM163.727 274.528C164.314 274.332 164.876 274.041 165.345 273.571L187.778 251.138C189.388 249.533 189.388 246.923 187.778 245.313C186.169 243.704 183.559 243.704 181.949 245.313L163.731 263.535V238.092H276.462V288.931H168.212L187.778 269.369C189.388 267.759 189.388 265.149 187.778 263.544C186.169 261.935 183.559 261.935 181.949 263.544L163.731 281.762L163.727 274.528ZM326.378 216.851L326.187 47.6972H326.221L326.121 38.945C326.121 30.3146 319.127 23.3198 310.492 23.3198H169.678C161.043 23.3198 154.048 30.3146 154.048 38.945L153.948 47.6972H154.018L153.753 216.851H326.378ZM270.885 128.438L292.478 106.853C294.088 105.243 294.088 102.633 292.478 101.024C290.869 99.4143 288.259 99.4143 286.649 101.024L270.885 116.793V110.207L292.478 88.6176C294.088 87.0081 294.088 84.3981 292.478 82.793C290.869 81.1835 288.259 81.1835 286.649 82.793L270.885 98.5617V64.9841H316.564V130.06H270.885V128.438ZM270.885 139.752H316.564V207.642H270.885V139.752ZM217.467 64.9841H263.146V107.436C263.064 107.906 263.064 108.371 263.146 108.841V125.667C263.064 126.136 263.064 126.602 263.146 127.072V130.9H217.467V64.9841ZM217.467 199.051L238.826 177.697C240.435 176.087 240.435 173.477 238.826 171.868C237.216 170.258 234.606 170.258 233.001 171.868L217.467 187.402V181.586C218.207 181.421 218.924 181.129 219.503 180.555L233.097 166.757C234.706 165.147 234.706 162.537 233.097 160.928C231.487 159.318 228.881 159.318 227.272 160.928L217.471 170.872V138.904H263.151V207.642H217.467V199.051ZM163.27 64.9841H208.945V66.0803C207.684 65.8802 206.357 66.189 205.391 67.1634L182.958 89.6007C181.349 91.2102 181.349 93.8159 182.958 95.4254C184.568 97.0349 187.178 97.0349 188.787 95.4254L208.95 75.2631V82.3884C208.415 82.5885 207.91 82.8843 207.479 83.3106L185.046 105.744C183.437 107.357 183.437 109.963 185.046 111.573C186.652 113.182 189.266 113.182 190.871 111.573L208.95 93.494V130.238H163.275L163.27 64.9841ZM163.27 138.373H208.945V207.642H163.27V138.373Z" fill="#5782BB"/>
</g>
</svg>
